Coordinates
version=1
nRows=9
nColumns=36
inDegrees=yes

Units are S.I. units (second, meters, Newtons, ...)
Angles are in degrees.

endheader
time	pelvis_tilt	pelvis_list	pelvis_rotation	pelvis_tx	pelvis_ty	pelvis_tz	hip_flexion_r	hip_adduction_r	hip_rotation_r	knee_angle_r	ankle_angle_r	subtalar_angle_r	hip_flexion_l	hip_adduction_l	hip_rotation_l	knee_angle_l	ankle_angle_l	subtalar_angle_l	lumbar_extension	lumbar_bending	lumbar_rotation	arm_flex_r	arm_add_r	arm_rot_r	elbow_flex_r	pro_sup_r	wrist_flex_r	wrist_dev_r	arm_flex_l	arm_add_l	arm_rot_l	elbow_flex_l	pro_sup_l	wrist_flex_l	wrist_dev_l
      2.69000000	      0.52731677	     -2.93755097	      7.65738112	      0.50144547	      0.92864092	      0.18825269	      4.52777369	      7.77011427	     -7.76548379	    -16.79670992	      6.94796663	     -2.46004647	     22.89662772	      1.16204803	      7.33525077	    -59.64607645	      0.16371836	     -3.11347608	     -7.92033663	      4.61416733	     -0.39429896	     -0.74068111	    -20.86193623	      9.35657116	     33.11919800	     86.51662706	      0.00000000	      0.00000000	      0.15434120	    -15.69123059	     28.73267316	     15.04700855	     86.51662706	      0.00000000	      0.00000000
      2.70000000	      0.50239057	     -2.67094918	      7.44029584	      0.51396527	      0.92884655	      0.18850514	      3.18683461	      7.66277908	     -7.47944401	    -15.94394987	      7.34940071	     -2.19518876	     23.84794658	      1.40499504	      6.91265293	    -57.47353359	      0.70575389	     -3.69264925	     -8.01761221	      4.24430803	      0.13124358	     -0.44663787	    -21.29527187	      9.16894053	     34.50548746	     86.51662706	      0.00000000	      0.00000000	     -0.32479473	    -15.69203923	     28.66163438	     14.55837756	     86.51662706	      0.00000000	      0.00000000
      2.71000000	      0.51360343	     -2.45183980	      7.22842058	      0.52649088	      0.92880468	      0.18872328	      1.80753146	      7.58816381	     -7.24931352	    -15.09058048	      7.76942605	     -1.87147260	     24.64989137	      1.57830495	      6.50869827	    -55.02255138	      1.07881253	     -4.30510061	     -8.13754313	      3.93593596	      0.62750079	     -0.14040334	    -21.73322370	      8.95445415	     35.86892656	     86.51662706	      0.00000000	      0.00000000	     -0.81237707	    -15.68684348	     28.51225761	     14.09140432	     86.51662706	      0.00000000	      0.00000000
      2.72000000	      0.55545952	     -2.27895674	      7.02436944	      0.53904193	      0.92855031	      0.18887033	      0.40487475	      7.54442221	     -7.07364465	    -14.25382661	      8.20869914	     -1.48786536	     25.30775078	      1.69522468	      6.12735202	    -52.31355500	      1.28966759	     -4.98003273	     -8.27780673	      3.68760074	      1.09330723	      0.17573457	    -22.17022017	      8.71801814	     37.20166691	     86.51662706	      0.00000000	      0.00000000	     -1.30128068	    -15.67055508	     28.30783011	     13.63499763	     86.51662706	      0.00000000	      0.00000000
      2.73000000	      0.62044452	     -2.14724789	      6.82863798	      0.55163704	      0.92802274	      0.18896282	     -1.00062617	      7.52799813	     -6.94535219	    -13.45754741	      8.66720753	     -1.05348924	     25.83103343	      1.76901527	      5.76967537	    -49.37211444	      1.36142373	     -5.73106562	     -8.43382873	      3.49363236	      1.52868755	      0.49796522	    -22.60023904	      8.46458330	     38.49658754	     86.51662706	      0.00000000	      0.00000000	     -1.78644925	    -15.64056663	     28.07080480	     13.18008265	     86.51662706	      0.00000000	      0.00000000
      2.74000000	      0.70205339	     -2.04930171	      6.64103258	      0.56429504	      0.92713400	      0.18902678	     -2.38801195	      7.53520323	     -6.85461768	    -12.72790245	      9.14413531	     -0.58603898	     26.23237290	      1.81008921	      5.43682571	    -46.22841351	      1.33300966	     -6.54863237	     -8.60041322	      3.34586428	      1.93427443	      0.82145388	    -23.01714893	      8.19883845	     39.74734364	     86.51662706	      0.00000000	      0.00000000	     -2.26421825	    -15.59648684	     27.82217916	     12.71916189	     86.51662706	      0.00000000	      0.00000000
      2.75000000	      0.79624266	     -1.97881426	      6.46182046	      0.57703646	      0.92588538	      0.18905422	     -3.74025145	      7.56319987	     -6.79095529	    -12.08838529	      9.63717416	     -0.10863463	     26.52576901	      1.82465121	      5.13095380	    -42.91720327	      1.25576607	     -7.39632887	     -8.77325097	      3.23594302	      2.31075424	      1.14091228	    -23.41518445	      7.92513577	     40.94822658	     86.51662706	      0.00000000	      0.00000000	     -2.73142496	    -15.53916739	     27.58111421	     12.24594560	     86.51662706	      0.00000000	      0.00000000
      2.76000000	      0.90100829	     -1.93314958	      6.29196737	      0.58986974	      0.92437350	      0.18903044	     -5.04647137	      7.61000348	     -6.74393102	    -11.55551080	     10.14167258	      0.35431561	     26.72473563	      1.81451415	      4.85384663	    -39.47872818	      1.18691565	     -8.21206427	     -8.94944660	      3.15740756	      2.65849053	      1.45109160	    -23.78946832	      7.64757059	     42.09395673	     86.51662706	      0.00000000	      0.00000000	     -3.18474302	    -15.46950737	     27.36473680	     11.75511236	     86.51662706	      0.00000000	      0.00000000
      2.77000000	      1.01494105	     -1.91266500	      6.13266883	      0.60279051	      0.92270298	      0.18896176	     -6.30187596	      7.67478455	     -6.70315896	    -11.13653610	     10.65013656	      0.78148647	     26.84123148	      1.77740607	      4.60409372	    -35.96032861	      1.18089382	     -8.91407211	     -9.12663192	      3.10696510	      2.97748449	      1.74716395	    -24.13649936	      7.37010881	     43.17954212	     86.51662706	      0.00000000	      0.00000000	     -3.62043224	    -15.38752208	     27.18806064	     11.24223451	     86.51662706	      0.00000000	      0.00000000
